# xmcd
#
# Track frame offsets: 
#        150
#        8429
#        19990
#        32790
#        44383
#        56121
#        68616
#        81315
#        92201
#        103458
#        115542
#        125373
#        135168
#        144741
#        154686
#        163946
#        173444
#        184596
#        194691
#        204789
#
# Disc length: 2856 seconds
#
# Revision: 0
# Processed by: cddbd v1.5.2PL0 Copyright (c) Steve Scherf et al.
# Submitted via: ExactAudioCopy v1.0b3
#
DISCID=0b0b2614
DTITLE=Various Artist - Country and Western Greatest Love Songs - 200 O
DTITLE=riginal Recordings [CD 6,10)
DYEAR=1960
DGENRE=Country
TTITLE0=Johnny Cash - Guess Things Happen That Way
TTITLE1=Skeets McDonald - You Better Not Go
TTITLE2=Hank Snow - These Hands
TTITLE3=The Browns - Just As Long As You Love Me
TTITLE4=Hank Williams - Settin' The Woods On Fire
TTITLE5=Kitty Wells and Red Foley - You And Me
TTITLE6=Jim Reeves - Irene Goodnight
TTITLE7=Stonewall Jackson - Life To Go
TTITLE8=Johnny Cash - Clementine
TTITLE9=Eddy Arnold - Trouble In Mind
TTITLE10=Don Gibson - Lonesome Old House
TTITLE11=Red Sovine - Hold Everything
TTITLE12=Marty Robbins - Just Married
TTITLE13=Wilburn Brothers - Go Away With Me
TTITLE14=Webb Pierce - 'Cause I Love You
TTITLE15=Sonny James - Talk Of The School
TTITLE16=Porter Wagoner - Tryin' To Forget The Blues
TTITLE17=Carl Smith - Before I Met You
TTITLE18=Marvin and Patty Rainwater - Can I Count On Your Love
TTITLE19=Dolly Parton - Girl Left Alone
EXTD=
EXTT0=
EXTT1=
EXTT2=
EXTT3=
EXTT4=
EXTT5=
EXTT6=
EXTT7=
EXTT8=
EXTT9=
EXTT10=
EXTT11=
EXTT12=
EXTT13=
EXTT14=
EXTT15=
EXTT16=
EXTT17=
EXTT18=
EXTT19=
PLAYORDER=
